<svg width="24" height="24" viewBox="0 0 24 24" fill="none" xmlns="http://www.w3.org/2000/svg">
<path d="M2 22L16 17L7 8L2 22ZM12.35 16.18L5.3 18.7L7.82 11.65L12.35 16.18Z" fill="white"/>
<path d="M14.5287 12.5301L20.1187 6.94014C20.6087 6.45014 21.3987 6.45014 21.8887 6.94014L22.4787 7.53014L23.5387 6.47014L22.9487 5.88014C21.8787 4.81014 20.1287 4.81014 19.0587 5.88014L13.4688 11.4701L14.5287 12.5301Z" fill="white"/>
<path d="M10.0588 6.87996L9.46875 7.46996L10.5287 8.52996L11.1187 7.93996C12.1887 6.86996 12.1887 5.11996 11.1187 4.04996L10.5287 3.45996L9.46875 4.52996L10.0588 5.11996C10.5388 5.59996 10.5388 6.39996 10.0588 6.87996Z" fill="white"/>
<path d="M17.0587 11.8801L15.4688 13.4701L16.5288 14.5301L18.1188 12.9401C18.6088 12.4501 19.3987 12.4501 19.8887 12.9401L21.4987 14.5501L22.5587 13.4901L20.9488 11.8801C19.8688 10.8101 18.1287 10.8101 17.0587 11.8801Z" fill="white"/>
<path d="M15.0587 5.87996L11.4688 9.46996L12.5287 10.53L16.1188 6.93996C17.1888 5.86996 17.1888 4.11996 16.1188 3.04996L14.5287 1.45996L13.4687 2.51996L15.0587 4.10996C15.5387 4.59996 15.5387 5.39996 15.0587 5.87996Z" fill="white"/>
</svg>
