<svg width="598" height="406" viewBox="0 0 598 406" fill="none" xmlns="http://www.w3.org/2000/svg">
<path d="M121.758 127.49H7.33797C4.89797 127.49 2.91797 125.51 2.91797 123.07C2.91797 120.63 4.89797 118.65 7.33797 118.65H121.768C124.208 118.65 126.188 120.63 126.188 123.07C126.178 125.51 124.198 127.49 121.758 127.49Z" fill="#F0DFFF"/>
<path d="M332.607 9.25995H258.057C255.557 9.25995 253.527 7.22995 253.527 4.72995C253.527 2.22995 255.557 0.199951 258.057 0.199951H332.607C335.107 0.199951 337.137 2.22995 337.137 4.72995C337.137 7.22995 335.107 9.25995 332.607 9.25995Z" fill="#F0DFFF"/>
<path d="M58.2889 185.84H45.1389C41.6789 185.84 38.8789 183.04 38.8789 179.58V167.23C38.8789 163.77 41.6789 160.97 45.1389 160.97H58.2889C61.7489 160.97 64.5489 163.77 64.5489 167.23V179.58C64.5489 183.04 61.7489 185.84 58.2889 185.84Z" fill="#673695"/>
<path d="M440.93 405.1H433.75C431.86 405.1 430.34 403.57 430.34 401.69V394.95C430.34 393.06 431.87 391.54 433.75 391.54H440.93C442.82 391.54 444.34 393.07 444.34 394.95V401.69C444.34 403.57 442.81 405.1 440.93 405.1Z" fill="#673695"/>
<path d="M569.649 117.41H562.469C560.579 117.41 559.059 115.88 559.059 114V107.26C559.059 105.37 560.589 103.85 562.469 103.85H569.649C571.539 103.85 573.059 105.38 573.059 107.26V114C573.059 115.88 571.529 117.41 569.649 117.41Z" fill="#673695"/>
<path d="M67.8169 325.57L31.5769 344.34L42.0169 349.4L29.0469 364.9L39.1669 373.18L51.6869 356.54L60.0869 365.54L67.8169 325.57Z" fill="black"/>
<path d="M193.997 403.67H151.657C148.517 403.67 145.977 401.13 145.977 397.99C145.977 394.85 148.517 392.31 151.657 392.31H193.997C197.137 392.31 199.677 394.85 199.677 397.99C199.677 401.13 197.137 403.67 193.997 403.67Z" fill="#F0DFFF"/>
<path d="M465.75 363.45H124.74C120.79 363.45 117.59 360.25 117.59 356.3V72.2699C117.59 68.3199 120.79 65.1199 124.74 65.1199H465.75C469.7 65.1199 472.9 68.3199 472.9 72.2699V356.3C472.9 360.25 469.7 363.45 465.75 363.45Z" fill="#ECD6FF"/>
<path d="M117.59 101.02H472.9" stroke="black" stroke-width="1.9411" stroke-miterlimit="10"/>
<path d="M465.75 363.45H124.74C120.79 363.45 117.59 360.25 117.59 356.3V72.2699C117.59 68.3199 120.79 65.1199 124.74 65.1199H465.75C469.7 65.1199 472.9 68.3199 472.9 72.2699V356.3C472.9 360.25 469.7 363.45 465.75 363.45Z" stroke="black" stroke-width="1.9411" stroke-miterlimit="10"/>
<path d="M147.631 88.4499C150.398 88.4499 152.641 86.2069 152.641 83.4399C152.641 80.673 150.398 78.4299 147.631 78.4299C144.864 78.4299 142.621 80.673 142.621 83.4399C142.621 86.2069 144.864 88.4499 147.631 88.4499Z" stroke="black" stroke-width="1.9411" stroke-miterlimit="10"/>
<path d="M167.092 88.4499C169.859 88.4499 172.102 86.2069 172.102 83.4399C172.102 80.673 169.859 78.4299 167.092 78.4299C164.325 78.4299 162.082 80.673 162.082 83.4399C162.082 86.2069 164.325 88.4499 167.092 88.4499Z" stroke="black" stroke-width="1.9411" stroke-miterlimit="10"/>
<path d="M186.561 88.4499C189.328 88.4499 191.571 86.2069 191.571 83.4399C191.571 80.673 189.328 78.4299 186.561 78.4299C183.794 78.4299 181.551 80.673 181.551 83.4399C181.551 86.2069 183.794 88.4499 186.561 88.4499Z" stroke="black" stroke-width="1.9411" stroke-miterlimit="10"/>
<path d="M191.349 309.68H10.7992C5.07923 309.68 0.449219 305.04 0.449219 299.33V232.4C0.449219 226.68 5.08922 222.05 10.7992 222.05H191.349C197.069 222.05 201.699 226.69 201.699 232.4V299.33C201.709 305.05 197.069 309.68 191.349 309.68Z" fill="#DFBDFF"/>
<path d="M24.8505 238.32C24.8505 240.42 23.1405 242.13 21.0405 242.13C18.9405 242.13 17.2305 240.42 17.2305 238.32C17.2305 236.22 18.9405 234.51 21.0405 234.51C23.1505 234.51 24.8505 236.21 24.8505 238.32Z" stroke="black" stroke-width="1.4768" stroke-miterlimit="10"/>
<path d="M35.8491 242.13C37.9533 242.13 39.6591 240.424 39.6591 238.32C39.6591 236.216 37.9533 234.51 35.8491 234.51C33.7449 234.51 32.0391 236.216 32.0391 238.32C32.0391 240.424 33.7449 242.13 35.8491 242.13Z" stroke="black" stroke-width="1.4768" stroke-miterlimit="10"/>
<path d="M50.6616 242.13C52.7658 242.13 54.4716 240.424 54.4716 238.32C54.4716 236.216 52.7658 234.51 50.6616 234.51C48.5574 234.51 46.8516 236.216 46.8516 238.32C46.8516 240.424 48.5574 242.13 50.6616 242.13Z" stroke="black" stroke-width="1.4768" stroke-miterlimit="10"/>
<path d="M0.449219 252.74H201.709" stroke="black" stroke-width="1.4768" stroke-miterlimit="10"/>
<path d="M515.838 110.8H434.838C428.078 110.8 422.598 105.32 422.598 98.56V33.22C422.598 26.46 428.078 20.98 434.838 20.98H515.838C522.598 20.98 528.078 26.46 528.078 33.22V98.56C528.078 105.32 522.598 110.8 515.838 110.8Z" fill="#DFBDFF"/>
<path d="M468.679 76.1099C458.629 76.1099 450.449 67.9299 450.449 57.8799C450.449 47.8299 458.629 39.6499 468.679 39.6499C478.729 39.6499 486.909 47.8299 486.909 57.8799C486.909 67.9299 478.729 76.1099 468.679 76.1099ZM468.679 43.7899C460.909 43.7899 454.579 50.1099 454.579 57.8899C454.579 65.6599 460.899 71.9899 468.679 71.9899C476.449 71.9899 482.779 65.6699 482.779 57.8899C482.779 50.1099 476.459 43.7899 468.679 43.7899Z" fill="#673695"/>
<path d="M481.553 67.8729L478.633 70.7932L484.014 76.1742L486.934 73.2539L481.553 67.8729Z" fill="#673695"/>
<path d="M489.698 72.4798L500.348 83.1298C501.478 84.2598 501.478 86.0898 500.348 87.2198L497.978 89.5898C496.848 90.7198 495.018 90.7198 493.888 89.5898L483.238 78.9398C482.108 77.8098 482.108 75.9798 483.238 74.8498L485.608 72.4798C486.738 71.3498 488.568 71.3498 489.698 72.4798Z" fill="#673695"/>
<path d="M86.6683 82.6399H40.1183C32.3083 82.6399 25.9883 76.3099 25.9883 68.5099V29.0299C25.9883 21.2199 32.3183 14.8999 40.1183 14.8999H86.6683C94.4783 14.8999 100.798 21.2299 100.798 29.0299V68.5099C100.798 76.3199 94.4783 82.6399 86.6683 82.6399Z" fill="#673695"/>
<path d="M63.3969 63.3699C54.6569 63.3699 47.5469 56.2599 47.5469 47.5199C47.5469 38.7799 54.6569 31.6699 63.3969 31.6699C72.1369 31.6699 79.2469 38.7799 79.2469 47.5199C79.2369 56.2599 72.1269 63.3699 63.3969 63.3699ZM63.3969 36.4299C57.2869 36.4299 52.3069 41.3999 52.3069 47.5199C52.3069 53.6299 57.2769 58.6099 63.3969 58.6099C69.5069 58.6099 74.4869 53.6399 74.4869 47.5199C74.4769 41.3999 69.5069 36.4299 63.3969 36.4299Z" fill="#FEFEF4"/>
<path d="M72.7386 36.4299L54.5586 58.5999" stroke="#FEFEF4" stroke-width="4.522" stroke-miterlimit="10"/>
<path d="M584.69 320.96H416.05C408.84 320.96 403 315.12 403 307.91V182.07C403 174.86 408.84 169.02 416.05 169.02H584.69C591.9 169.02 597.74 174.86 597.74 182.07V307.91C597.74 315.12 591.89 320.96 584.69 320.96Z" fill="#673695"/>
<path d="M423.151 187.06C425.189 187.06 426.841 185.408 426.841 183.37C426.841 181.332 425.189 179.68 423.151 179.68C421.113 179.68 419.461 181.332 419.461 183.37C419.461 185.408 421.113 187.06 423.151 187.06Z" stroke="#FEFEF4" stroke-width="1.4304" stroke-miterlimit="10"/>
<path d="M437.503 187.06C439.54 187.06 441.193 185.408 441.193 183.37C441.193 181.332 439.54 179.68 437.503 179.68C435.465 179.68 433.812 181.332 433.812 183.37C433.812 185.408 435.465 187.06 437.503 187.06Z" stroke="#FEFEF4" stroke-width="1.4304" stroke-miterlimit="10"/>
<path d="M451.842 187.06C453.88 187.06 455.532 185.408 455.532 183.37C455.532 181.332 453.88 179.68 451.842 179.68C449.804 179.68 448.152 181.332 448.152 183.37C448.152 185.408 449.804 187.06 451.842 187.06Z" stroke="#FEFEF4" stroke-width="1.4304" stroke-miterlimit="10"/>
<path d="M403 198.77H597.74" stroke="#FEFEF4" stroke-width="1.4304" stroke-miterlimit="10"/>
<path d="M313.812 257.37L313.072 247.34L250.522 250.41V260.09C250.522 260.09 236.452 273.47 230.902 362.52H343.492C343.492 362.52 355.842 283.72 313.812 257.37Z" fill="#673695"/>
<path d="M250.523 260.1L313.813 257.37" stroke="black" stroke-width="1.5516" stroke-miterlimit="10"/>
<path d="M263.453 301.15L276.423 306.43L283.363 362.52" stroke="black" stroke-width="1.5516" stroke-miterlimit="10"/>
<path d="M182.141 237.98L199.421 180.94L237.431 195.19L219.191 249.82C215.451 261.1 202.561 266.43 191.951 261.06C183.501 256.78 179.361 247.03 182.141 237.98Z" fill="#FFAEA2"/>
<path d="M208.802 150.47C212.222 139.35 224.162 133.26 235.172 137.02C245.872 140.68 251.642 152.27 248.082 163.01L237.432 195.17L199.422 180.92L208.802 150.47Z" fill="#FEFEF4"/>
<path d="M211.491 233.7L168.081 151.39C168.081 151.39 169.071 136.52 144.371 135.63L144.381 135.65C144.041 135.63 143.711 135.6 143.371 135.6H135.111C133.581 135.6 132.181 136.68 131.971 138.2C131.731 139.96 132.961 141.47 134.611 141.68L142.941 142.86L131.611 145.88L129.491 146.66L114.061 136.46C112.831 135.58 111.111 135.99 110.401 137.32C109.841 138.37 110.091 139.66 111.001 140.42C111.951 141.21 113.481 142.53 115.161 143.97L111.751 141.93C110.451 141.15 108.771 141.69 108.171 143.08C107.701 144.17 108.051 145.43 109.021 146.12C109.851 146.71 110.921 147.46 112.061 148.26L110.881 147.8C109.581 147.29 108.051 147.66 107.251 148.81C106.171 150.37 106.821 152.49 108.531 153.2L125.391 160.26C128.301 161.48 131.081 162.24 134.511 161.43L149.541 157.89L183.171 252.03L211.491 233.7Z" fill="#FFAEA2"/>
<path d="M193.672 199.92L201.712 215.15" stroke="#DB5749" stroke-width="1.5" stroke-miterlimit="10"/>
<path d="M242.591 136.12L226.451 137.33C226.451 137.33 203.091 169.02 250.521 250.42L313.071 247.35L317.781 159.65L310.061 134.75H282.041L242.591 136.12Z" fill="#FEFEF4"/>
<path d="M224.28 190.25C224.28 190.25 219.63 180.46 222.62 158.78" stroke="#F0DFFF" stroke-width="1.5516" stroke-miterlimit="10"/>
<path d="M369.46 226.52L343.48 172.88L308.16 192.89L334.71 244C340.16 254.56 353.73 257.81 363.37 250.85C371.06 245.31 373.63 235.03 369.46 226.52Z" fill="#FFAEA2"/>
<path d="M329.47 144.26C324.35 133.81 311.61 129.66 301.32 135.1C291.32 140.38 287.44 152.74 292.63 162.79L308.17 192.9L343.49 172.89L329.47 144.26Z" fill="#FEFEF4"/>
<path d="M308.17 192.89L295.34 168.03" stroke="#F0DFFF" stroke-width="1.5516" stroke-miterlimit="10"/>
<path d="M423.679 134.75C422.889 133.6 421.349 133.24 420.049 133.74L412.499 136.69L419.589 130.69C420.759 129.7 421.089 127.94 420.209 126.69C419.189 125.25 417.239 125.03 415.949 126.08L409.359 131.39L414.979 124.04C415.909 122.82 415.859 121.03 414.719 120C413.419 118.81 411.469 119.02 410.419 120.31L399.319 131.83L387.999 128.8L396.329 127.62C397.979 127.41 399.219 125.9 398.969 124.14C398.759 122.62 397.359 121.54 395.829 121.54H387.569C382.689 121.54 377.929 123.24 374.319 126.48C374.259 126.53 374.199 126.56 374.139 126.61C369.069 130.61 370.919 138.8 370.919 138.8L339.809 226.88L370.639 240.56L388.409 145.97L399.759 145.99C400.459 146.06 401.169 146.05 401.879 145.99H401.969H401.959C403.179 145.88 404.389 145.59 405.539 145.11L422.399 139.14C424.109 138.43 424.759 136.31 423.679 134.75Z" fill="#FFAEA2"/>
<path d="M351.9 190.25L345.18 213.71" stroke="#DB5749" stroke-width="1.5" stroke-miterlimit="10"/>
<path d="M241.34 63.46C239.4 64.79 226.36 68.18 226.1 70.55C226.1 70.55 230.39 87.32 226 90.45C214.12 98.91 210.32 115.5 210.32 115.5C210.32 115.5 241.66 138.97 324.96 114.33C324.96 114.33 325.96 104.35 310.81 97.11C306.49 95.04 302.64 91.93 300.21 87.69C298.33 84.41 298.04 83.02 297.54 80.08C296.14 71.85 273.44 41.44 241.34 63.46Z" fill="black"/>
<path d="M242.571 88.6001C242.951 94.1001 238.801 98.8801 233.301 99.2601C227.801 99.6401 223.021 95.4901 222.641 89.9901C222.261 84.4901 226.411 79.7101 231.911 79.3301C237.411 78.9401 242.181 83.0901 242.571 88.6001Z" fill="#DB5749"/>
<path d="M247.082 113.07L248.462 134.8C248.932 142.43 252.052 147.63 259.562 147.11C265.972 146.66 273.592 141.53 273.942 135.12L270.122 101.03L247.082 113.07Z" fill="#FFAEA2"/>
<path d="M242.589 136.12L282.029 134.75C282.029 134.75 281.069 154.14 257.629 152.33C241.339 151.06 242.589 136.12 242.589 136.12Z" fill="#FFAEA2"/>
<path d="M248.221 130.97L273.431 106.32L246.891 110.84L248.221 130.97Z" fill="#DB5749"/>
<path d="M253.69 116.58C240.85 116.62 230.25 106.51 229.87 96.03L229.11 71.3C228.63 58.16 238.66 47.01 251.77 46.1C265.19 45.17 279.19 55.13 280.12 68.55L280.51 88.45C280.82 103.84 269.05 115.51 253.69 116.58Z" fill="#FFAEA2"/>
<path d="M243.334 87.3201L242.594 93.4601L245.774 93.5801" stroke="black" stroke-width="1.2385" stroke-miterlimit="10" stroke-linecap="round" stroke-linejoin="round"/>
<path d="M256.012 72.33C256.012 72.33 248.922 71.75 248.852 74.63C248.852 74.63 248.862 76.58 255.042 76.97C261.232 77.36 262.842 76.9 263.402 75.07C263.972 73.24 259.342 72.35 256.012 72.33Z" fill="black"/>
<path d="M235.462 76.5401C235.462 76.5401 240.832 76.1101 241.342 78.7001C241.342 78.7001 241.642 80.4602 236.942 80.7302C232.242 81.0002 230.782 80.4201 230.692 78.9301C230.572 77.1601 232.902 76.5201 235.462 76.5401Z" fill="black"/>
<path d="M238.57 84.9799C238.61 86.2299 237.63 87.2799 236.38 87.3199C235.13 87.3599 234.08 86.3799 234.04 85.1299C234 83.8799 234.98 82.8299 236.23 82.7899C237.48 82.7399 238.53 83.7199 238.57 84.9799Z" fill="black"/>
<path d="M257.633 84.3501C257.673 85.6001 256.693 86.6501 255.443 86.6901C254.193 86.7301 253.143 85.7501 253.103 84.5001C253.063 83.2501 254.043 82.2001 255.293 82.1601C256.543 82.1201 257.593 83.1001 257.633 84.3501Z" fill="black"/>
<path d="M250.992 97.85C250.992 97.85 247.642 96.32 243.582 99.82" stroke="black" stroke-width="1.2385" stroke-miterlimit="10" stroke-linecap="round" stroke-linejoin="round"/>
<path d="M259.72 41.84C256.52 41.67 253.29 42.02 250.2 42.85C242.51 44.9 228.71 50.59 226.34 65.36C225.55 69.25 226.1 70.56 226.1 70.56C226.1 70.56 251.88 71.57 267.13 64.37C269.32 73.66 271.35 79.41 280.53 88.45L288.68 76.21L297.85 84.43C297.9 84.74 297.88 43.87 259.72 41.84Z" fill="black"/>
<path d="M293.899 88.6999C294.279 94.1999 290.129 98.9799 284.629 99.3599C279.129 99.7399 274.349 95.5899 273.969 90.0899C273.589 84.5899 277.739 79.8099 283.239 79.4299C288.739 79.0399 293.509 83.1899 293.899 88.6999Z" fill="#FFAEA2"/>
<path d="M280.121 92.2498C280.121 92.2498 279.621 85.0298 286.601 85.6798" stroke="black" stroke-width="1.2385" stroke-miterlimit="10" stroke-linecap="round" stroke-linejoin="round"/>
<path d="M435.43 262.9V253.24L457.55 221.6H470.92V252.54H476.66V262.9H470.92V272H458.95V262.9H435.43ZM459.79 234.76L448.03 252.54H459.79V234.76ZM480.423 245.75C480.423 237.723 481.963 231.4 485.043 226.78C488.17 222.16 493.186 219.85 500.093 219.85C507 219.85 511.993 222.16 515.073 226.78C518.2 231.4 519.763 237.723 519.763 245.75C519.763 253.87 518.2 260.24 515.073 264.86C511.993 269.48 507 271.79 500.093 271.79C493.186 271.79 488.17 269.48 485.043 264.86C481.963 260.24 480.423 253.87 480.423 245.75ZM508.003 245.75C508.003 241.037 507.49 237.42 506.463 234.9C505.436 232.333 503.313 231.05 500.093 231.05C496.873 231.05 494.75 232.333 493.723 234.9C492.696 237.42 492.183 241.037 492.183 245.75C492.183 248.923 492.37 251.56 492.743 253.66C493.116 255.713 493.863 257.393 494.983 258.7C496.15 259.96 497.853 260.59 500.093 260.59C502.333 260.59 504.013 259.96 505.133 258.7C506.3 257.393 507.07 255.713 507.443 253.66C507.816 251.56 508.003 248.923 508.003 245.75ZM524.267 262.9V253.24L546.387 221.6H559.757V252.54H565.497V262.9H559.757V272H547.787V262.9H524.267ZM548.627 234.76L536.867 252.54H548.627V234.76Z" fill="white"/>
<path d="M451.415 297.68C451.415 298.21 451.29 298.71 451.04 299.18C450.79 299.65 450.39 300.035 449.84 300.335C449.29 300.625 448.585 300.77 447.725 300.77H445.835V305H444.125V294.575H447.725C448.525 294.575 449.2 294.715 449.75 294.995C450.31 295.265 450.725 295.635 450.995 296.105C451.275 296.575 451.415 297.1 451.415 297.68ZM447.725 299.375C448.375 299.375 448.86 299.23 449.18 298.94C449.5 298.64 449.66 298.22 449.66 297.68C449.66 296.54 449.015 295.97 447.725 295.97H445.835V299.375H447.725ZM452.026 300.83C452.026 300 452.196 299.265 452.536 298.625C452.886 297.985 453.356 297.49 453.946 297.14C454.546 296.78 455.206 296.6 455.926 296.6C456.576 296.6 457.141 296.73 457.621 296.99C458.111 297.24 458.501 297.555 458.791 297.935V296.735H460.516V305H458.791V303.77C458.501 304.16 458.106 304.485 457.606 304.745C457.106 305.005 456.536 305.135 455.896 305.135C455.186 305.135 454.536 304.955 453.946 304.595C453.356 304.225 452.886 303.715 452.536 303.065C452.196 302.405 452.026 301.66 452.026 300.83ZM458.791 300.86C458.791 300.29 458.671 299.795 458.431 299.375C458.201 298.955 457.896 298.635 457.516 298.415C457.136 298.195 456.726 298.085 456.286 298.085C455.846 298.085 455.436 298.195 455.056 298.415C454.676 298.625 454.366 298.94 454.126 299.36C453.896 299.77 453.781 300.26 453.781 300.83C453.781 301.4 453.896 301.9 454.126 302.33C454.366 302.76 454.676 303.09 455.056 303.32C455.446 303.54 455.856 303.65 456.286 303.65C456.726 303.65 457.136 303.54 457.516 303.32C457.896 303.1 458.201 302.78 458.431 302.36C458.671 301.93 458.791 301.43 458.791 300.86ZM465.642 296.6C466.282 296.6 466.847 296.73 467.337 296.99C467.837 297.24 468.227 297.555 468.507 297.935V296.735H470.232V305.135C470.232 305.895 470.072 306.57 469.752 307.16C469.432 307.76 468.967 308.23 468.357 308.57C467.757 308.91 467.037 309.08 466.197 309.08C465.077 309.08 464.147 308.815 463.407 308.285C462.667 307.765 462.247 307.055 462.147 306.155H463.842C463.972 306.585 464.247 306.93 464.667 307.19C465.097 307.46 465.607 307.595 466.197 307.595C466.887 307.595 467.442 307.385 467.862 306.965C468.292 306.545 468.507 305.935 468.507 305.135V303.755C468.217 304.145 467.822 304.475 467.322 304.745C466.832 305.005 466.272 305.135 465.642 305.135C464.922 305.135 464.262 304.955 463.662 304.595C463.072 304.225 462.602 303.715 462.252 303.065C461.912 302.405 461.742 301.66 461.742 300.83C461.742 300 461.912 299.265 462.252 298.625C462.602 297.985 463.072 297.49 463.662 297.14C464.262 296.78 464.922 296.6 465.642 296.6ZM468.507 300.86C468.507 300.29 468.387 299.795 468.147 299.375C467.917 298.955 467.612 298.635 467.232 298.415C466.852 298.195 466.442 298.085 466.002 298.085C465.562 298.085 465.152 298.195 464.772 298.415C464.392 298.625 464.082 298.94 463.842 299.36C463.612 299.77 463.497 300.26 463.497 300.83C463.497 301.4 463.612 301.9 463.842 302.33C464.082 302.76 464.392 303.09 464.772 303.32C465.162 303.54 465.572 303.65 466.002 303.65C466.442 303.65 466.852 303.54 467.232 303.32C467.612 303.1 467.917 302.78 468.147 302.36C468.387 301.93 468.507 301.43 468.507 300.86ZM479.603 300.665C479.603 300.975 479.583 301.255 479.543 301.505H473.228C473.278 302.165 473.523 302.695 473.963 303.095C474.403 303.495 474.943 303.695 475.583 303.695C476.503 303.695 477.153 303.31 477.533 302.54H479.378C479.128 303.3 478.673 303.925 478.013 304.415C477.363 304.895 476.553 305.135 475.583 305.135C474.793 305.135 474.083 304.96 473.453 304.61C472.833 304.25 472.343 303.75 471.983 303.11C471.633 302.46 471.458 301.71 471.458 300.86C471.458 300.01 471.628 299.265 471.968 298.625C472.318 297.975 472.803 297.475 473.423 297.125C474.053 296.775 474.773 296.6 475.583 296.6C476.363 296.6 477.058 296.77 477.668 297.11C478.278 297.45 478.753 297.93 479.093 298.55C479.433 299.16 479.603 299.865 479.603 300.665ZM477.818 300.125C477.808 299.495 477.583 298.99 477.143 298.61C476.703 298.23 476.158 298.04 475.508 298.04C474.918 298.04 474.413 298.23 473.993 298.61C473.573 298.98 473.323 299.485 473.243 300.125H477.818ZM492.847 305H491.137L485.992 297.215V305H484.282V294.56H485.992L491.137 302.33V294.56H492.847V305ZM498.228 305.135C497.448 305.135 496.743 304.96 496.113 304.61C495.483 304.25 494.988 303.75 494.628 303.11C494.268 302.46 494.088 301.71 494.088 300.86C494.088 300.02 494.273 299.275 494.643 298.625C495.013 297.975 495.518 297.475 496.158 297.125C496.798 296.775 497.513 296.6 498.303 296.6C499.093 296.6 499.808 296.775 500.448 297.125C501.088 297.475 501.593 297.975 501.963 298.625C502.333 299.275 502.518 300.02 502.518 300.86C502.518 301.7 502.328 302.445 501.948 303.095C501.568 303.745 501.048 304.25 500.388 304.61C499.738 304.96 499.018 305.135 498.228 305.135ZM498.228 303.65C498.668 303.65 499.078 303.545 499.458 303.335C499.848 303.125 500.163 302.81 500.403 302.39C500.643 301.97 500.763 301.46 500.763 300.86C500.763 300.26 500.648 299.755 500.418 299.345C500.188 298.925 499.883 298.61 499.503 298.4C499.123 298.19 498.713 298.085 498.273 298.085C497.833 298.085 497.423 298.19 497.043 298.4C496.673 298.61 496.378 298.925 496.158 299.345C495.938 299.755 495.828 300.26 495.828 300.86C495.828 301.75 496.053 302.44 496.503 302.93C496.963 303.41 497.538 303.65 498.228 303.65ZM505.753 298.13V302.705C505.753 303.015 505.823 303.24 505.963 303.38C506.113 303.51 506.363 303.575 506.713 303.575H507.763V305H506.413C505.643 305 505.053 304.82 504.643 304.46C504.233 304.1 504.028 303.515 504.028 302.705V298.13H503.053V296.735H504.028V294.68H505.753V296.735H507.763V298.13H505.753ZM518.471 294.575V295.97H514.046V299.045H517.496V300.44H514.046V305H512.336V294.575H518.471ZM523.19 305.135C522.41 305.135 521.705 304.96 521.075 304.61C520.445 304.25 519.95 303.75 519.59 303.11C519.23 302.46 519.05 301.71 519.05 300.86C519.05 300.02 519.235 299.275 519.605 298.625C519.975 297.975 520.48 297.475 521.12 297.125C521.76 296.775 522.475 296.6 523.265 296.6C524.055 296.6 524.77 296.775 525.41 297.125C526.05 297.475 526.555 297.975 526.925 298.625C527.295 299.275 527.48 300.02 527.48 300.86C527.48 301.7 527.29 302.445 526.91 303.095C526.53 303.745 526.01 304.25 525.35 304.61C524.7 304.96 523.98 305.135 523.19 305.135ZM523.19 303.65C523.63 303.65 524.04 303.545 524.42 303.335C524.81 303.125 525.125 302.81 525.365 302.39C525.605 301.97 525.725 301.46 525.725 300.86C525.725 300.26 525.61 299.755 525.38 299.345C525.15 298.925 524.845 298.61 524.465 298.4C524.085 298.19 523.675 298.085 523.235 298.085C522.795 298.085 522.385 298.19 522.005 298.4C521.635 298.61 521.34 298.925 521.12 299.345C520.9 299.755 520.79 300.26 520.79 300.86C520.79 301.75 521.015 302.44 521.465 302.93C521.925 303.41 522.5 303.65 523.19 303.65ZM536.206 296.735V305H534.496V304.025C534.226 304.365 533.871 304.635 533.431 304.835C533.001 305.025 532.541 305.12 532.051 305.12C531.401 305.12 530.816 304.985 530.296 304.715C529.786 304.445 529.381 304.045 529.081 303.515C528.791 302.985 528.646 302.345 528.646 301.595V296.735H530.341V301.34C530.341 302.08 530.526 302.65 530.896 303.05C531.266 303.44 531.771 303.635 532.411 303.635C533.051 303.635 533.556 303.44 533.926 303.05C534.306 302.65 534.496 302.08 534.496 301.34V296.735H536.206ZM542.182 296.6C542.832 296.6 543.412 296.735 543.922 297.005C544.442 297.275 544.847 297.675 545.137 298.205C545.427 298.735 545.572 299.375 545.572 300.125V305H543.877V300.38C543.877 299.64 543.692 299.075 543.322 298.685C542.952 298.285 542.447 298.085 541.807 298.085C541.167 298.085 540.657 298.285 540.277 298.685C539.907 299.075 539.722 299.64 539.722 300.38V305H538.012V296.735H539.722V297.68C540.002 297.34 540.357 297.075 540.787 296.885C541.227 296.695 541.692 296.6 542.182 296.6ZM546.733 300.83C546.733 300 546.903 299.265 547.243 298.625C547.593 297.985 548.063 297.49 548.653 297.14C549.253 296.78 549.918 296.6 550.648 296.6C551.188 296.6 551.718 296.72 552.238 296.96C552.768 297.19 553.188 297.5 553.498 297.89V293.9H555.223V305H553.498V303.755C553.218 304.155 552.828 304.485 552.328 304.745C551.838 305.005 551.273 305.135 550.633 305.135C549.913 305.135 549.253 304.955 548.653 304.595C548.063 304.225 547.593 303.715 547.243 303.065C546.903 302.405 546.733 301.66 546.733 300.83ZM553.498 300.86C553.498 300.29 553.378 299.795 553.138 299.375C552.908 298.955 552.603 298.635 552.223 298.415C551.843 298.195 551.433 298.085 550.993 298.085C550.553 298.085 550.143 298.195 549.763 298.415C549.383 298.625 549.073 298.94 548.833 299.36C548.603 299.77 548.488 300.26 548.488 300.83C548.488 301.4 548.603 301.9 548.833 302.33C549.073 302.76 549.383 303.09 549.763 303.32C550.153 303.54 550.563 303.65 550.993 303.65C551.433 303.65 551.843 303.54 552.223 303.32C552.603 303.1 552.908 302.78 553.138 302.36C553.378 301.93 553.498 301.43 553.498 300.86Z" fill="white"/>
</svg>
